<?xml version="1.0" encoding="utf-8"?>
<!-- Generator: Adobe Illustrator 22.1.0, SVG Export Plug-In . SVG Version: 6.00 Build 0)  -->
<svg version="1.1" id="Capa_1" xmlns="http://www.w3.org/2000/svg" xmlns:xlink="http://www.w3.org/1999/xlink" x="0px" y="0px"
	 viewBox="0 0 1000 1000" style="enable-background:new 0 0 1000 1000;" xml:space="preserve">
<g>
	<g transform="translate(0.000000,512.000000) scale(0.100000,-0.100000)">
		<path d="M-3397.8,11310.6c-364.8-185.1-1079-935.2-1366.8-1433.6c-616.5-1068.8-549.7-991.8-889-1058.6
			c-673.1-138.7-1443.8-344.2-1659.8-446.9c-760.5-364.8-2271.2-2445.8-2784.9-3827.9c-118-323.8-354.7-745-863.3-1551.7
			c-190.2-298-395.7-642.2-462.5-770.7c-61.7-123.4-200.4-344.2-308.2-488.2c-102.7-138.7-277.4-416.1-385.5-616.5
			c-277.4-508.6-405.9-662.9-775.8-935.2c-174.6-128.5-344.2-298-375-369.9c-102.7-257-112.9-390.6-41-488.2
			c66.8-92.6,77-92.6,282.8,15.3c118.3,56.6,226.2,107.8,241.4,107.8s-41-97.6-128.5-215.7c-164.4-221.1-195.3-390.6-92.6-493.3
			s154.3-71.9,467.6,262.1c236.3,246.5,298,287.9,272.3,190.2c-82.1-334-148.9-822.2-118.3-858.2c87.5-82.1,226.2,92.6,503.5,621.8
			c159.4,303.1,323.8,585.6,369.9,632c112.9,118.3,205.5,30.9,426.5-400.8c313.3-621.8,359.7-565.2,339.1,395.7
			c-20.7,765.6,35.9,1197.3,174.6,1310.2c41,30.9,71.9,133.6,71.9,221.1c5.1,133.6,107.8,267.2,642.2,827.3l642.2,668l92.6-123.4
			l97.6-123.4l25.8,267.2c20.7,205.5,61.7,303.1,169.5,405.9l138.7,138.7l-30.9-421.4c-15.6-236.3-41-616.5-56.6-847.7l-25.8-426.5
			l123.4,334c66.8,185.1,159.4,405.9,205.5,488.2c46.1,87.5,82.1,257,82.1,380.1c0,195.3,25.8,246.8,185.1,385.5l185.1,159.4
			l-154.3,251.6l-159.4,246.5l390.6,596.1c411,637.1,477.8,729.7,477.8,652.7c0-30.9,35.9-292.9,77-591
			c143.8-1048.1,87.5-1587.6-190.2-1885.7l-107.8-118l107.8-118.3c61.7-66.8,112.9-154.3,112.9-200.4c0-46.1-82.1-308.2-185.1-585.6
			c-298-827.3-349.3-1145.8-739.9-4388.1c-61.7-493.3-164.4-1269.2-236.3-1721.2c-118-760.5-128.5-935.2-118-2415
			c10.2-1428.5,5.1-1618.5-82.1-1824.2c-56.6-149.2-102.7-467.6-133.6-873.5c-20.7-354.7-56.6-739.9-71.9-858.2
			c-15.3-123.4-20.7-221.1-5.1-221.1c10.2,0,71.9,143.8,133.6,323.8c221.1,657.8,251.6,652.4,251.6-66.8
			c5.1-1058.6-159.4-1593-621.8-2086.1c-277.4-292.9-894.1-729.7-1361.7-966c-503.5-251.6-626.9-611.4-308.2-930.1
			c236.3-236.3,565.2-277.4,1017.3-128.5c426.5,143.8,889,375,1094.5,550c251.9,215.7,457.4,272.3,1114.9,323.8
			c344.2,25.8,637.1,56.6,652.4,71.9c10.2,15.3,46.1,359.7,66.8,760.5c77,1289.8,51.5,1202.4,195.3,770.7
			c66.8-205.5,128.5-364.8,138.7-354.7c10.2,5.1-5.1,221.1-30.9,472.7c-25.8,257-51.5,611.4-51.5,791.4c0,179.7-25.8,411-56.6,518.8
			c-46.1,148.9-41,267.2,35.9,596.1c82.1,349.6,97.6,668,102.7,2230.1c10.2,1371.9,25.8,1896.1,82.1,2106.7l71.9,282.5l41-328.9
			l35.9-323.8l231.2,400.8c210.6,369.9,221.1,405.9,148.9,513.7c-41,61.7-123.4,128.5-179.7,148.9c-97.6,30.9-107.8,61.7-82.1,292.9
			c46.1,421.2,760.5,3098.5,847.7,3190.8c133.6,133.6,698.8-416.1,755.4-729.7c15.3-102.7,61.7-231.2,97.6-292.9
			c92.6-143.8,164.4-570.3,231.2-1356.4c51.5-611.4,154.3-1279.4,251.9-1711c30.9-128.5,30.9-257-5.1-349.6
			c-35.9-107.8-35.9-272.3,10.2-565.2c41-257,51.5-657.8,35.9-1089.2l-30.9-678.2l77,385.5c169.5,878.6,195.3,950.5,328.9,950.5
			c169.5,0,200.4-143.8,257-1259c30.9-637.1,82.4-1089.4,154.3-1377c56.6-236.3,102.7-519.1,102.7-632
			c0-112.9,30.9-267.2,71.9-349.6c41-77,92.6-287.6,112.9-467.6c30.9-282.5,46.1-313.3,87.5-215.7c30.9,61.7,66.8,112.9,87.5,112.9
			c25.8,0,82.1-164.4,128.5-364.8c82.1-323.8,82.1-421.5,20.7-930.1c-77-668-10.2-1634,133.6-1880.6
			c112.9-190.2,380.1-364.8,601.2-405.9c231.2-35.9,714.1,102.7,837.5,241.4c133.6,143.8,82.1,601.2-148.9,1325.8
			c-102.7,323.8-184.8,637.1-184.8,698.8c0,61.7,56.6,169.5,128.5,236.3c112.9,107.8,128.5,164.4,128.5,508.6l5.1,390.6l179.7-308.2
			c102.7-169.5,174.6-272.3,159.4-231.2c-10.2,41-97.6,390.6-185.1,770.7c-92.6,380.1-200.4,765.6-241.4,847.7
			c-41,87.5-97.6,339.1-123.4,565.2c-133.6,1012.2-323.5,2332.9-462.5,3159.9c-221.1,1336-303.1,1998.9-359.7,2825.9
			c-66.8,955.6-200.4,1880.6-539.5,3699.7c-148.9,806.7-308.2,1711-359.7,2009.1c-82.1,534.4-82.1,544.6,25.8,822.2
			C-2880,3248.6-2001.2,4841.3-1914,4841.3c66.8,0,56.6-138.7-56.6-1053.2c-56.6-446.9-92.6-827.3-82.1-832.4
			c35.9-41,226.1,323.8,282.8,539.5c30.9,118.3,82.1,308.2,107.8,421.4c61.7,231.2,184.8,272.3,257,82.4
			c25.8-66.8,92.6-154.3,149.2-195.3c143.8-102.7,236.3-349.3,416.1-1094.5C-588.2,1661-238.6,807.9,336.8-137.5
			C480.6-373.8,609.1-641,629.8-733.6c35.9-190.2-66.8-457.4-328.9-868.4c-190.2-298-257-565.2-164.4-673.1
			c82.1-97.6,180-25.8,226.1,154.3c25.8,92.6,66.8,128.5,154.3,128.5c215.7,0,246.5-318.7,82.1-796.5c-112.9-334-133.6-591-41-591
			c30.9,0,123.4,77,200.4,169.5l144.1,164.4l5.1-159.4c0-87.2,35.9-190.2,77-226.2c61.7-51.5,102.7-35.9,221.1,82.1
			c405.9,411,549.7,894.1,467.6,1598.1c-112.9,996.9-765.6,3483.7-1253.6,4794C208.8,3603,178,3746.8,162.4,4147.6
			c-15.3,395.7-46.1,544.6-231.2,1022.6c-118.3,308.2-257,770.7-313.3,1027.7c-221.1,1032.8-601.2,1428.5-1885.7,1962.9
			c-118.3,46.1-112.9,51.5,92.6,251.9l205.5,200.4l5.1-226.2v-231.2l97.6,303.1c51.2,169.5,143.8,364.8,195.3,441.8
			c262.1,349.3,344.2,580.5,344.2,976.2c0,334-20.7,421.5-154.3,662.9c-282.8,508.6-781.2,827.3-1356.6,863.3
			C-3115,11423.6-3217.7,11403.2-3397.8,11310.6z"/>
	</g>
</g>
</svg>
