<svg id="Layer_1" enable-background="new 0 0 512 512" height="512" viewBox="0 0 512 512" width="512" xmlns="http://www.w3.org/2000/svg"><path d="m136 199.895c4.418 0 8-3.582 8-8s-3.582-8-8-8h-8c-4.418 0-8 3.582-8 8s3.582 8 8 8z"/><path d="m410.916 92.199-79.413-36.59c-22.066-10.28-46.599-15.713-70.942-15.713h-208.561c-28.673 0-52 23.327-52 52 0 21.809 13.502 40.513 32.582 48.224-4.717 31.349 19.573 59.775 51.418 59.775h12c4.418 0 8-3.582 8-8s-3.582-8-8-8h-12c-21.115 0-38.242-18.363-35.737-40.149 2.984.213-4.616.149 97.512.149 37.198 0 72.209 14.191 98.871 40h-76.646c-4.418 0-8 3.582-8 8s3.582 8 8 8h90.9c18.873 24.655 29.1 54.652 29.1 86.226 0 9.801-7.974 17.774-17.774 17.774h-118.226c-74.84 0-106.871 98.065-53.746 117.566 1.455 1.5 3.491 2.434 5.746 2.434h69.88c31.454 0 62.675 7.961 90.289 23.023 53.482 29.172 96.548 24.977 143.831 24.977 57.346 0 104-46.654 104-104v-117.824c0-67.611-39.678-129.579-101.084-157.872zm85.084 275.696c0 48.523-39.477 88-88 88-49.958 0-87.314 3.625-136.169-23.023-29.957-16.34-63.828-24.977-97.951-24.977h-61.88c-13.234 0-24-10.766-24-24 0-35.29 28.71-64 64-64h118.226c18.623 0 33.774-15.151 33.774-33.775 0-87.447-70.767-158.225-158.225-158.225h-93.775c-19.851 0-36-16.149-36-36s16.149-36 36-36h208.561c22.025 0 44.221 4.916 64.217 14.231l79.443 36.604c55.754 25.689 91.779 81.954 91.779 143.341z"/></svg>