<svg id="Layer_1" enable-background="new 0 0 512.003 512.003" height="512" viewBox="0 0 512.003 512.003" width="512" xmlns="http://www.w3.org/2000/svg"><path d="m190.659 96.065c5.263 0 9.079-4.986 7.739-10.048l-.36-1.36c-1.13-4.271-5.511-6.815-9.78-5.688-4.271 1.13-6.818 5.509-5.688 9.78l.36 1.36c.95 3.586 4.187 5.956 7.729 5.956z"/><path d="m434.096 36.711c-19.536-33.701-70.457-27.237-80.609 10.631l-36.944 137.896c-7.377-7.376-11.471-12.833-20.844-14.29l-37.058-138.328c-6.298-23.477-30.4-37.406-53.886-31.105-23.464 6.281-37.413 30.355-31.122 53.875l.74 2.78c1.137 4.271 5.52 6.812 9.788 5.674 4.27-1.136 6.81-5.519 5.674-9.788l-.742-2.79c-4.027-15.055 4.933-30.316 19.804-34.296 14.939-4.007 30.28 4.847 34.29 19.792l36.741 137.145c-1.732 1.009-3.374 2.226-4.858 3.706-23.222 23.177-23.154 60.623-.215 83.724l27.299 27.714c4.753 4.826 7.907 10.821 9.19 17.327-59.437 11.603-103.35 64.303-103.35 125.624 0 4.418 3.582 8 8 8s8-3.582 8-8c0-55.917 41.725-103.64 97.056-111.01 3.975-.53 6.944-3.92 6.944-7.93 0-13.27-5.128-25.785-14.441-35.239l-27.322-27.738c-16.728-16.845-16.849-44.191.141-61.147 3.104-3.097 8.161-3.083 11.275.031l68.572 68.572c16.621 16.621 25.774 38.72 25.774 62.226v52.235c0 68.374-55.626 124-124 124h-56c-68.374 0-124-55.626-124-124v-60.022c19.829 14.919 48.483 8.35 59.757-14.081 27.214 29.328 76.243 9.799 76.243-29.897v-88c0-8.498-2.429-16.436-6.618-23.171l-10.835-40.43c-1.144-4.268-5.529-6.799-9.798-5.657-4.268 1.144-6.8 5.531-5.657 9.798l4.959 18.504c-27.388-10.772-57.347 8.044-59.873 37.117-26.124-19.887-64.178-1.267-64.178 31.838v164c0 77.196 62.804 140 140 140h56c77.196 0 140-62.804 140-140v-52.235c0-22.347-7.006-43.614-19.969-61.305l50.467-188.351c3.039-11.348 1.481-23.203-4.395-33.399zm-282.102 143.292c0-15.439 12.561-28 28-28s28 12.561 28 28v88c0 15.439-12.561 28-28 28s-28-12.561-28-28c0-10.157 0-77.86 0-88zm-64 28c0-13.234 10.766-24 24-24s24 10.766 24 24v72c0 13.234-10.766 24-24 24s-24-10.766-24-24zm335.043-142.03-47.707 178.052-45.722-45.722 39.335-146.818c3.998-14.911 19.38-23.798 34.294-19.803 14.864 3.978 23.826 19.25 19.8 34.291z"/></svg>