<?xml version="1.0" encoding="iso-8859-1"?>
<!-- Generator: Adobe Illustrator 16.0.0, SVG Export Plug-In . SVG Version: 6.00 Build 0)  -->
<!DOCTYPE svg PUBLIC "-//W3C//DTD SVG 1.1//EN" "http://www.w3.org/Graphics/SVG/1.1/DTD/svg11.dtd">
<svg version="1.1" id="Capa_1" xmlns="http://www.w3.org/2000/svg" xmlns:xlink="http://www.w3.org/1999/xlink" x="0px" y="0px"
	 width="471.023px" height="471.023px" viewBox="0 0 471.023 471.023" style="enable-background:new 0 0 471.023 471.023;"
	 xml:space="preserve">
<g>
	<g>
		<path d="M297.67,352.123c-5.382-7.689-9.321-20.273-1.018-69.36c13.408-13.276,24.493-25.491,27.987-29.391
			c-0.413,6.981-1.579,14.202-3.747,21.717c0,0,148.215-244.189-70.142-256.946c0,0-63.315-41.215-124.156,23.552
			c0,0-76.542,72.616-0.981,176.633c75.56,104.017,2.943,87.334,2.943,87.334s45.268,20.37,59.584-0.513
			c2.978,25.407,1.13,36.463-2.174,43.248C121.8,361.404,16.571,393.092,0,465.806h235.511h235.513
			C444.069,399.247,358.006,367.079,297.67,352.123z M189.531,276.339l-0.096-1.25l-0.307-3.924l-12.495-161.762
			c0,0,126.771,38.556,145.798,118.47l-3.727,20.354c-6.24,6.978-13.722,14.964-21.588,22.947c-1.287,1.31-2.589,2.62-3.896,3.923
			c-1.318,1.318-2.649,2.621-3.983,3.927c-19.74,19.34-40.126,36.628-48.49,36.628c-8.361,0-28.743-17.288-48.483-36.628
			C191.345,278.126,190.433,277.236,189.531,276.339z M240.748,427.206c-39.134,0-70.983-18.045-70.983-40.234
			c0-7.181,3.565-14.307,10.307-20.614l0.87-0.813c1.641-1.462,3.489-2.881,5.496-4.247l1.179-1.194
			c2.817-3.551,5.676-7.138,7.586-13.518c2.785-9.354,3.484-24.77-0.952-54.737c17.418,16.406,36.324,31.639,46.498,31.639
			c10.171,0,29.086-15.24,46.503-31.646c-4.938,33.365-3.487,48.69,0.176,57.819c1.872,4.677,4.316,7.754,6.765,10.819l0.865,0.813
			c2.032,1.379,3.899,2.821,5.551,4.3l0.817,0.758c6.74,6.312,10.308,13.433,10.308,20.614
			C311.724,409.165,279.885,427.206,240.748,427.206z"/>
	</g>
</g>
<g>
</g>
<g>
</g>
<g>
</g>
<g>
</g>
<g>
</g>
<g>
</g>
<g>
</g>
<g>
</g>
<g>
</g>
<g>
</g>
<g>
</g>
<g>
</g>
<g>
</g>
<g>
</g>
<g>
</g>
</svg>
