<?xml version="1.0" encoding="iso-8859-1"?>
<!-- Generator: Adobe Illustrator 19.1.1, SVG Export Plug-In . SVG Version: 6.00 Build 0)  -->
<svg version="1.1" id="Layer_1" xmlns="http://www.w3.org/2000/svg" xmlns:xlink="http://www.w3.org/1999/xlink" x="0px" y="0px"
	 viewBox="0 0 48 48" enable-background="new 0 0 48 48" xml:space="preserve">
<g>
	<path fill="#BBDEFB" d="M36,6c0,0-19.91,0-23.5,0S6,11.596,6,18.5S8.91,31,12.5,31S36,31,36,31"/>
	<path fill="#BBDEFB" d="M6,18.5V42c0-0.552,0.448-1,1-1s1,0.448,1,1h1c0-0.552,0.448-1,1-1s1,0.448,1,1h1c0-0.552,0.448-1,1-1
		s1,0.448,1,1h1c0-0.552,0.448-1,1-1s1,0.448,1,1h1c0-0.552,0.448-1,1-1s1,0.448,1,1h1c0-0.552,0.448-1,1-1s1,0.448,1,1h1
		c0-0.552,0.448-1,1-1s1,0.448,1,1h1c0-0.552,0.448-1,1-1s1,0.448,1,1V18.5H6z"/>
</g>
<ellipse fill="#90CAF9" cx="35.5" cy="18.5" rx="6.5" ry="12.5"/>
<ellipse fill="#37474F" cx="35.5" cy="18.5" rx="1.5" ry="2.885"/>
<path fill="#42A5F5" d="M8,20c0,0.552-0.448,1-1,1s-1-0.448-1-1s0.448-1,1-1S8,19.448,8,20z M10,19c-0.552,0-1,0.448-1,1
	s0.448,1,1,1s1-0.448,1-1S10.552,19,10,19z M13,19c-0.552,0-1,0.448-1,1s0.448,1,1,1s1-0.448,1-1S13.552,19,13,19z M16,19
	c-0.552,0-1,0.448-1,1s0.448,1,1,1c0.552,0,1-0.448,1-1S16.552,19,16,19z M19,19c-0.552,0-1,0.448-1,1s0.448,1,1,1s1-0.448,1-1
	S19.552,19,19,19z M22,19c-0.552,0-1,0.448-1,1s0.448,1,1,1s1-0.448,1-1S22.552,19,22,19z M25,19c-0.552,0-1,0.448-1,1s0.448,1,1,1
	s1-0.448,1-1S25.552,19,25,19z M28,19c-0.552,0-1,0.448-1,1s0.448,1,1,1s1-0.448,1-1S28.552,19,28,19z"/>
<path fill="#42A5F5" d="M29.051,20H29v11h6.5C32.175,31,29.437,26.195,29.051,20z"/>
</svg>
